<svg width="60" height="60" viewBox="0 0 60 60" fill="none" xmlns="http://www.w3.org/2000/svg">
<path d="M38.3282 31.502C35.2901 33.8918 30.8893 33.3658 28.4989 30.3271C26.1085 27.2884 26.6336 22.8878 29.6718 20.498C32.7099 18.1082 37.1107 18.6342 39.5011 21.6729C41.8915 24.7116 41.3664 29.1122 38.3282 31.502Z" fill="#88C63A"/>
<path fill-rule="evenodd" clip-rule="evenodd" d="M60 29.897C60 27.8435 58.6833 26.0214 56.7335 25.3768L54.1289 24.5157C52.5779 24.0029 51.3278 22.8391 50.7056 21.3287C50.1017 19.8629 50.1468 18.21 50.8296 16.7793L52.0705 14.1791C52.9446 12.3475 52.5708 10.164 51.1373 8.72746C49.6745 7.26145 47.4356 6.90043 45.5861 7.8323L43.2233 9.02275C41.7663 9.75688 40.0618 9.82034 38.5542 9.19659C37.0914 8.5914 35.9524 7.3964 35.418 5.90629L34.4384 3.17456C33.7555 1.27033 31.9505 0 29.9275 0C27.85 0 26.0091 1.3386 25.3687 3.31493L24.5546 5.82705C24.04 7.41525 22.8499 8.69492 21.3032 9.32332C19.8272 9.92299 18.1667 9.8723 16.73 9.18371L14.1654 7.95453C12.3291 7.07443 10.1372 7.45014 8.69893 8.89156C7.2408 10.3528 6.88161 12.5833 7.80728 14.4285L9.00921 16.8242C9.73837 18.2777 9.80142 19.9759 9.18205 21.4794C8.5752 22.9524 7.37097 24.0982 5.86955 24.6311L3.18077 25.5854C1.27402 26.2622 0 28.0663 0 30.0896C0 32.1511 1.32184 33.9803 3.27918 34.6274L5.87112 35.4843C7.42209 35.9971 8.67222 37.1609 9.29443 38.6713C9.89827 40.1371 9.85322 41.79 9.17044 43.2207L7.92951 45.8209C7.05542 47.6525 7.42917 49.836 8.86267 51.2725C10.3255 52.7386 12.5644 53.0996 14.4139 52.1677L16.7766 50.9773C18.2337 50.2431 19.9382 50.1797 21.4458 50.8034C22.9086 51.4086 24.0476 52.6036 24.582 54.0937L25.5687 56.8453C26.2473 58.7376 28.0411 60 30.0514 60C32.116 60 33.9453 58.6698 34.5818 56.7058L35.4025 54.173C35.9172 52.5848 37.1072 51.3051 38.654 50.6767C40.13 50.077 41.7905 50.1277 43.2271 50.8163L45.7989 52.0489C47.6309 52.9269 49.8176 52.5521 51.2526 51.1141C52.7128 49.6507 53.0678 47.415 52.1327 45.5713L50.9536 43.2465C50.1954 41.7518 50.1401 39.9976 50.8025 38.458C51.4206 37.0215 52.6065 35.9054 54.0779 35.3755L56.8523 34.3763C58.7409 33.6961 60 31.9044 60 29.897ZM30 45.5548C21.4233 45.5548 14.5 38.6166 14.5 30.0215C14.5 21.4264 21.4233 14.4882 30 14.4882C42 14.4882 45.5 18 45.5 30.0215C45.5 38.6166 38.5767 45.5548 30 45.5548Z" fill="#88C63A"/>
</svg>
